<svg width="28" height="28" viewBox="0 0 28 28" fill="none" xmlns="http://www.w3.org/2000/svg">
<path fill-rule="evenodd" clip-rule="evenodd" d="M0 14C0 6.26801 6.26801 0 14 0C21.732 0 28 6.26801 28 14C28 21.732 21.732 28 14 28C6.26801 28 0 21.732 0 14ZM16.0757 10.8908H20.0303V9.75777H16.0757V10.8908ZM19.6817 11.8419C19.2058 11.6314 18.6711 11.5257 18.0767 11.5257C17.0766 11.5257 16.2644 11.8384 15.6367 12.4595C15.0106 13.0823 14.6972 13.977 14.6972 15.1438C14.6972 16.3877 15.0431 17.2868 15.7394 17.8386C16.4321 18.3912 17.2338 18.6667 18.1425 18.6667C19.2427 18.6667 20.0987 18.3392 20.7099 17.6853C21.1014 17.2729 21.3227 16.8667 21.371 16.4682H19.5491C19.4437 16.6657 19.3208 16.8199 19.1812 16.9317C18.9275 17.137 18.5965 17.24 18.1917 17.24C17.8071 17.24 17.4796 17.1551 17.2074 16.9862C16.7579 16.7151 16.5226 16.2413 16.4927 15.5665H21.465C21.4729 14.9853 21.4535 14.5383 21.4052 14.23C21.3227 13.7025 21.1418 13.2382 20.86 12.838C20.5509 12.3841 20.1585 12.0515 19.6817 11.8419ZM13.3845 10.3035C12.9148 9.67288 12.1184 9.34979 10.9928 9.33333H6.53333V18.4371H10.6916C11.1605 18.4371 11.5942 18.3973 11.9955 18.315C12.3968 18.2318 12.7436 18.0802 13.0377 17.8576C13.2994 17.6636 13.5171 17.4245 13.691 17.1413C13.9658 16.7134 14.1027 16.2292 14.1027 15.6895C14.1027 15.1663 13.9825 14.7211 13.7436 14.3556C13.5022 13.9892 13.1475 13.7215 12.6768 13.5517C12.9868 13.3958 13.2212 13.2226 13.381 13.0338C13.6664 12.6959 13.8077 12.2481 13.8077 11.6929C13.8077 11.1532 13.6664 10.6907 13.3845 10.3035Z" fill="white"/>
<path fill-rule="evenodd" clip-rule="evenodd" d="M8.37277 10.9142H10.3817C10.8233 10.9142 11.1868 10.9618 11.4731 11.0562C11.8032 11.1931 11.9683 11.4729 11.9683 11.8982C11.9683 12.2793 11.8427 12.5461 11.5934 12.6968C11.3422 12.8475 11.0165 12.9229 10.617 12.9229H8.37277V10.9142ZM17.0125 13.3629C17.2645 13.1065 17.621 12.9783 18.0775 12.9783C18.499 12.9783 18.8511 13.0987 19.1373 13.3404C19.42 13.5838 19.5798 13.9372 19.6123 14.405H16.5366C16.6016 13.9667 16.7605 13.6193 17.0125 13.3629ZM8.37277 14.4292H10.6451C11.0402 14.4327 11.3484 14.4846 11.5679 14.5834C11.9604 14.761 12.1553 15.0858 12.1553 15.5605C12.1553 16.12 11.9533 16.4977 11.5486 16.6969C11.3264 16.8035 11.0139 16.8572 10.6135 16.8572H8.37277V14.4292Z" fill="white"/>
</svg>
