<svg width="29" height="28" viewBox="0 0 29 28" fill="none" xmlns="http://www.w3.org/2000/svg">
<path fill-rule="evenodd" clip-rule="evenodd" d="M14.1134 0C6.31979 0 0 6.42637 0 14.3543C0 20.6965 4.04391 26.0772 9.65159 27.9753C10.3569 28.1082 10.6159 27.6639 10.6159 27.2848C10.6159 26.9425 10.6028 25.8117 10.5967 24.6123C6.67036 25.4806 5.84186 22.9186 5.84186 22.9186C5.19985 21.2594 4.27482 20.8183 4.27482 20.8183C2.99431 19.9273 4.37134 19.9456 4.37134 19.9456C5.78857 20.0467 6.53481 21.4249 6.53481 21.4249C7.79358 23.6194 9.83645 22.9849 10.6418 22.6182C10.7685 21.6906 11.1343 21.0569 11.5379 20.6987C8.4031 20.3357 5.10777 19.1049 5.10777 13.6046C5.10777 12.0374 5.65909 10.7569 6.56192 9.75163C6.41538 9.38984 5.9323 7.9301 6.69864 5.95286C6.69864 5.95286 7.88379 5.56706 10.5808 7.42426C11.7066 7.10621 12.914 6.94671 14.1134 6.94124C15.3128 6.94671 16.5211 7.10621 17.649 7.42426C20.3427 5.56706 21.5262 5.95286 21.5262 5.95286C22.2945 7.9301 21.8111 9.38984 21.6646 9.75163C22.5695 10.7569 23.1171 12.0374 23.1171 13.6046C23.1171 19.1179 19.8155 20.3319 16.6728 20.6873C17.179 21.1327 17.63 22.0063 17.63 23.3455C17.63 25.266 17.6137 26.8118 17.6137 27.2848C17.6137 27.6668 17.8677 28.1144 18.5831 27.9734C24.1877 26.0732 28.2265 20.6944 28.2265 14.3543C28.2265 6.42637 21.9077 0 14.1134 0Z" fill="white"/>
<path fill-rule="evenodd" clip-rule="evenodd" d="M5.34545 20.6098C5.31437 20.6813 5.20406 20.7025 5.10356 20.6535C5.00119 20.6067 4.9437 20.5095 4.97689 20.4379C5.00727 20.3645 5.11782 20.3443 5.21995 20.393C5.32255 20.4401 5.38098 20.5382 5.34545 20.6098Z" fill="white"/>
<path fill-rule="evenodd" clip-rule="evenodd" d="M5.91711 21.2582C5.8498 21.3217 5.71822 21.2922 5.62894 21.1919C5.53663 21.0919 5.51933 20.958 5.58758 20.8936C5.65699 20.8301 5.7846 20.8598 5.87715 20.9599C5.96946 21.0612 5.98746 21.1941 5.91711 21.2582Z" fill="white"/>
<path fill-rule="evenodd" clip-rule="evenodd" d="M6.47358 22.085C6.3871 22.1461 6.24571 22.0888 6.1583 21.9611C6.07183 21.8335 6.07183 21.6804 6.16017 21.6191C6.24781 21.5578 6.3871 21.6129 6.47568 21.7396C6.56192 21.8691 6.56192 22.0225 6.47358 22.085Z" fill="white"/>
<path fill-rule="evenodd" clip-rule="evenodd" d="M7.23595 22.8837C7.15859 22.9704 6.99382 22.9471 6.87322 22.8288C6.74982 22.713 6.71547 22.5487 6.79306 22.462C6.87136 22.375 7.03706 22.3995 7.15859 22.5169C7.28105 22.6324 7.31845 22.7979 7.23595 22.8837Z" fill="white"/>
<path fill-rule="evenodd" clip-rule="evenodd" d="M8.28765 23.3474C8.25353 23.4599 8.09484 23.511 7.93498 23.4632C7.77535 23.414 7.67088 23.2823 7.70313 23.1687C7.73632 23.0555 7.89571 23.0023 8.05674 23.0534C8.21613 23.1024 8.32083 23.2331 8.28765 23.3474Z" fill="white"/>
<path fill-rule="evenodd" clip-rule="evenodd" d="M9.44265 23.4335C9.44662 23.5519 9.31107 23.65 9.14326 23.6519C8.97453 23.656 8.83804 23.5602 8.83617 23.4437C8.83617 23.3241 8.96868 23.2269 9.13742 23.2241C9.30523 23.2207 9.44265 23.3158 9.44265 23.4335Z" fill="white"/>
<path fill-rule="evenodd" clip-rule="evenodd" d="M10.5175 23.2474C10.5376 23.3629 10.421 23.4815 10.2543 23.5129C10.0905 23.5435 9.93882 23.4722 9.91802 23.3577C9.89769 23.2393 10.0164 23.1207 10.18 23.09C10.3469 23.0605 10.4962 23.1299 10.5175 23.2474Z" fill="white"/>
</svg>
