<svg width="28" height="28" viewBox="0 0 28 28" fill="none" xmlns="http://www.w3.org/2000/svg">
<path fill-rule="evenodd" clip-rule="evenodd" d="M0 14C0 6.26801 6.26801 0 14 0C21.732 0 28 6.26801 28 14C28 21.732 21.732 28 14 28C6.26801 28 0 21.732 0 14ZM9.89365 11.5954H6.72094V21.1281H9.89365V11.5954ZM10.1026 8.64657C10.082 7.7119 9.41363 7 8.32827 7C7.24291 7 6.53333 7.7119 6.53333 8.64657C6.53333 9.56189 7.22193 10.2943 8.28709 10.2943H8.30736C9.41363 10.2943 10.1026 9.56189 10.1026 8.64657ZM21.3356 15.6623C21.3356 12.7343 19.7705 11.3716 17.6827 11.3716C15.9982 11.3716 15.244 12.2968 14.8229 12.9459V11.5957H11.6498C11.6916 12.4902 11.6498 21.1283 11.6498 21.1283H14.8229V15.8045C14.8229 15.5196 14.8435 15.2354 14.9274 15.0314C15.1567 14.4623 15.6788 13.873 16.5553 13.873C17.7038 13.873 18.1629 14.7471 18.1629 16.0281V21.1281H21.3355L21.3356 15.6623Z" fill="white"/>
</svg>
